<?xml version="1.0" encoding="UTF-8" standalone="no"?>
<!-- Created with Inkscape (http://www.inkscape.org/) -->

<svg
   width="32"
   height="32"
   viewBox="0 0 8.4666667 8.4666667"
   version="1.1"
   id="svg5"
   inkscape:export-filename="/home/macslayer/bitmap.png"
   inkscape:export-xdpi="96"
   inkscape:export-ydpi="96"
   inkscape:version="1.1.2 (0a00cf5339, 2022-02-04)"
   sodipodi:docname="hourglass.svg"
   xmlns:inkscape="http://www.inkscape.org/namespaces/inkscape"
   xmlns:sodipodi="http://sodipodi.sourceforge.net/DTD/sodipodi-0.dtd"
   xmlns="http://www.w3.org/2000/svg"
   xmlns:svg="http://www.w3.org/2000/svg">
  <sodipodi:namedview
     id="namedview7"
     pagecolor="#ffffff"
     bordercolor="#666666"
     borderopacity="1.0"
     inkscape:pageshadow="2"
     inkscape:pageopacity="0.0"
     inkscape:pagecheckerboard="0"
     inkscape:document-units="mm"
     showgrid="false"
     units="px"
     inkscape:zoom="25.806305"
     inkscape:cx="15.441963"
     inkscape:cy="15.558214"
     inkscape:window-width="2168"
     inkscape:window-height="1373"
     inkscape:window-x="44"
     inkscape:window-y="44"
     inkscape:window-maximized="1"
     inkscape:current-layer="layer1" />
  <defs
     id="defs2">
    <marker
       style="overflow:visible"
       id="DotL"
       refX="0.0"
       refY="0.0"
       orient="auto"
       inkscape:stockid="DotL"
       inkscape:isstock="true">
      <path
         transform="scale(0.8) translate(7.4, 1)"
         style="fill-rule:evenodd;fill:context-stroke;stroke:context-stroke;stroke-width:1.0pt"
         d="M -2.5,-1.0 C -2.5,1.7600000 -4.7400000,4.0 -7.5,4.0 C -10.260000,4.0 -12.5,1.7600000 -12.5,-1.0 C -12.5,-3.7600000 -10.260000,-6.0 -7.5,-6.0 C -4.7400000,-6.0 -2.5,-3.7600000 -2.5,-1.0 z "
         id="path2887" />
    </marker>
  </defs>
  <g
     inkscape:label="Layer 1"
     inkscape:groupmode="layer"
     id="layer1">
    <path
       sodipodi:type="star"
       style="fill:#000000"
       id="path962"
       inkscape:flatsided="true"
       sodipodi:sides="48"
       sodipodi:cx="20.088551"
       sodipodi:cy="6.2390461"
       sodipodi:r1="2.3356352"
       sodipodi:r2="2.3306344"
       sodipodi:arg1="0.6948529"
       sodipodi:arg2="0.76030275"
       inkscape:rounded="1"
       inkscape:randomized="0"
       d="m 21.882664,7.734489 c -0.195613,0.2346812 0.01403,0.014244 -0.210544,0.221385 -0.224571,0.2071409 0.01205,0.015953 -0.237638,0.1920097 -0.249688,0.1760562 0.0099,0.01739 -0.260668,0.1593489 -0.270532,0.1419592 0.0075,0.018528 -0.279237,0.1239616 -0.286747,0.1054333 0.005,0.01935 -0.293029,0.086453 -0.298055,0.067103 0.0025,0.019841 -0.301806,0.047466 -0.304264,0.027625 -1.52e-4,0.019992 -0.305419,0.00767 -0.305267,-0.012326 -0.0028,0.019801 -0.303807,-0.032265 -0.301047,-0.052065 -0.0053,0.019271 -0.296997,-0.071643 -0.291675,-0.090915 -0.0078,0.018412 -0.285105,-0.1097963 -0.277313,-0.1282079 -0.01013,0.017237 -0.268334,-0.1460706 -0.258206,-0.1633077 -0.01229,0.015768 -0.246972,-0.1798456 -0.234682,-0.1956132 -0.01424,0.014029 -0.221385,-0.2105433 -0.207141,-0.2245718 -0.01595,0.012049 -0.19201,-0.2376387 -0.176056,-0.2496879 -0.01739,0.00986 -0.159349,-0.2606679 -0.141959,-0.2705317 -0.01853,0.00751 -0.123962,-0.2792371 -0.105433,-0.2867467 -0.01935,0.00503 -0.08645,-0.2930284 -0.0671,-0.2980553 -0.01984,0.00246 -0.04747,-0.301806 -0.02763,-0.3042641 -0.01999,-1.525e-4 -0.0077,-0.3054195 0.01233,-0.3052669 -0.0198,-0.00276 0.03226,-0.3038072 0.05207,-0.3010466 -0.01927,-0.00532 0.07164,-0.2969967 0.09091,-0.2916752 -0.01841,-0.00779 0.109796,-0.2851046 0.128208,-0.2773131 -0.01724,-0.010128 0.146071,-0.2683342 0.163307,-0.2582061 -0.01577,-0.012291 0.179845,-0.2469725 0.195614,-0.2346812 -0.01403,-0.014244 0.210544,-0.221385 0.224572,-0.2071409 -0.01205,-0.015953 0.237638,-0.1920097 0.249688,-0.1760562 -0.0099,-0.01739 0.260668,-0.1593489 0.270532,-0.1419592 -0.0075,-0.018528 0.279237,-0.1239616 0.286747,-0.1054333 -0.005,-0.01935 0.293029,-0.086453 0.298055,-0.067103 -0.0025,-0.019841 0.301806,-0.047466 0.304264,-0.027625 1.52e-4,-0.019992 0.305419,-0.00767 0.305267,0.012326 0.0028,-0.019801 0.303807,0.032265 0.301047,0.052065 0.0053,-0.019271 0.296997,0.071643 0.291675,0.090914 0.0078,-0.018412 0.285105,0.1097963 0.277313,0.1282079 0.01013,-0.017237 0.268334,0.1460706 0.258206,0.1633077 0.01229,-0.015768 0.246972,0.1798455 0.234682,0.1956133 0.01424,-0.014028 0.221385,0.2105434 0.207141,0.2245718 0.01595,-0.012049 0.19201,0.2376387 0.176056,0.2496879 0.01739,-0.00986 0.159349,0.2606679 0.141959,0.2705317 0.01853,-0.00751 0.123962,0.2792371 0.105433,0.2867467 0.01935,-0.00503 0.08645,0.2930284 0.0671,0.2980553 0.01984,-0.00246 0.04747,0.3018059 0.02763,0.3042642 0.01999,1.526e-4 0.0077,0.3054195 -0.01233,0.305267 0.0198,0.00276 -0.03226,0.3038073 -0.05207,0.3010465 0.01927,0.00532 -0.07164,0.2969967 -0.09091,0.2916752 0.01841,0.00779 -0.109796,0.2851046 -0.128208,0.2773131 0.01724,0.010128 -0.146071,0.2683342 -0.163307,0.2582061 0.01577,0.012291 -0.179845,0.2469725 z"
       transform="matrix(0.26458333,0,0,0.26458333,-0.07925046,-0.62647281)" />
    <path
       style="fill:none;stroke:#000000;stroke-width:0.5;stroke-linecap:round;stroke-linejoin:round;stroke-miterlimit:4;stroke-dasharray:none;stroke-opacity:1;paint-order:normal"
       d="m 5.807442,0.87308243 c 0,0 5.23076,5.03327847 -1.5741087,3.36025087"
       id="path824-3" />
    <path
       style="fill:none;stroke:#000000;stroke-width:0.5;stroke-linecap:round;stroke-linejoin:round;stroke-miterlimit:4;stroke-dasharray:none;stroke-opacity:1;paint-order:normal"
       d="m 4.2333333,4.2333333 c 0,0 -0.3900069,-7.2312652 3.2387529,-1.2364861"
       id="path824-3-1-0-9"
       sodipodi:nodetypes="cc" />
    <path
       style="fill:none;stroke:#000000;stroke-width:0.5;stroke-linecap:round;stroke-linejoin:round;stroke-miterlimit:4;stroke-dasharray:none;stroke-opacity:1;paint-order:normal"
       d="m 2.6592246,7.5935842 c 0,0 -5.2307602,-5.0332785 1.5741087,-3.3602509"
       id="path824-3-6" />
    <path
       style="fill:none;stroke:#000000;stroke-width:0.5;stroke-linecap:round;stroke-linejoin:round;stroke-miterlimit:4;stroke-dasharray:none;stroke-opacity:1;paint-order:normal"
       d="m 4.2333333,4.2333333 c 0,0 0.099909,1.8524483 -0.271904,2.9049008 C 2.9794693,8.9586669 1.4976188,6.2945318 0.9945804,5.4698194"
       id="path824-3-1-0-9-0"
       sodipodi:nodetypes="ccc" />
  </g>
</svg>
